<svg width="144" height="154" viewBox="0 0 144 154" fill="none" xmlns="http://www.w3.org/2000/svg">
<g filter="url(#filter0_d)">
<path d="M36 36C55.8823 16.1177 88.1177 16.1177 108 36C127.882 55.8823 127.882 88.1178 108 108L72 144L36 108C16.1177 88.1177 16.1177 55.8823 36 36Z" fill="white" fill-opacity="0.92"/>
<g clip-path="url(#clip0)">
<path d="M53.7033 78.7169L51.4281 87.2105L43.1124 87.3864C40.6272 82.777 39.2175 77.5031 39.2175 71.8988C39.2175 66.4795 40.5355 61.3689 42.8717 56.869H42.8735L50.2768 58.2263L53.5199 65.5852C52.8412 67.5641 52.4712 69.6884 52.4712 71.8988C52.4715 74.2978 52.906 76.5964 53.7033 78.7169Z" fill="#FBBB00"/>
<path d="M104.009 65.7935C104.384 67.7705 104.58 69.8122 104.58 71.8988C104.58 74.2386 104.334 76.5209 103.865 78.7224C102.275 86.214 98.1175 92.7556 92.3588 97.3849L92.357 97.3831L83.0322 96.9073L81.7124 88.6687C85.5336 86.4277 88.5198 82.9207 90.0928 78.7224H72.6173V65.7935H90.3478H104.009Z" fill="#518EF8"/>
<path d="M92.3569 97.3831L92.3587 97.3849C86.7581 101.887 79.6435 104.58 71.8988 104.58C59.453 104.58 48.6323 97.6237 43.1124 87.3866L53.7033 78.7171C56.4632 86.0829 63.5687 91.3263 71.8988 91.3263C75.4794 91.3263 78.8338 90.3584 81.7122 88.6687L92.3569 97.3831Z" fill="#28B446"/>
<path d="M92.7592 46.7414L82.1718 55.4091C79.1929 53.547 75.6714 52.4713 71.8988 52.4713C63.3801 52.4713 56.1417 57.9553 53.5201 65.5852L42.8735 56.869H42.8717C48.3108 46.3823 59.268 39.2175 71.8988 39.2175C79.8285 39.2175 87.0992 42.0422 92.7592 46.7414Z" fill="#F14336"/>
</g>
</g>
<defs>
<filter id="filter0_d" x="15.0883" y="19.0883" width="113.823" height="134.912" filterUnits="userSpaceOnUse" color-interpolation-filters="sRGB">
<feFlood flood-opacity="0" result="BackgroundImageFix"/>
<feColorMatrix in="SourceAlpha" type="matrix" values="0 0 0 0 0 0 0 0 0 0 0 0 0 0 0 0 0 0 127 0"/>
<feOffset dy="4"/>
<feGaussianBlur stdDeviation="3"/>
<feColorMatrix type="matrix" values="0 0 0 0 0.395833 0 0 0 0 0.395833 0 0 0 0 0.395833 0 0 0 0.25 0"/>
<feBlend mode="normal" in2="BackgroundImageFix" result="effect1_dropShadow"/>
<feBlend mode="normal" in="SourceGraphic" in2="effect1_dropShadow" result="shape"/>
</filter>
<clipPath id="clip0">
<rect width="65.3626" height="65.3626" fill="white" transform="translate(39.2175 39.2175)"/>
</clipPath>
</defs>
</svg>
