<svg width="28" height="28" viewBox="0 0 28 28" fill="none" xmlns="http://www.w3.org/2000/svg">
<g clip-path="url(#clip0)">
<path d="M26.317 12.0346C26.2025 12.0161 26.0865 12.0075 25.9705 12.009H6.21708L6.64781 11.8086C7.06883 11.6094 7.45186 11.3382 7.77972 11.0073L13.3191 5.46793C14.0486 4.7715 14.1712 3.65117 13.6096 2.81344C12.9559 1.92075 11.7024 1.72692 10.8096 2.38058C10.7375 2.43342 10.6689 2.49102 10.6045 2.553L0.587571 12.5699C-0.195251 13.3519 -0.19594 14.6203 0.586006 15.4032C0.586507 15.4037 0.58707 15.4042 0.587571 15.4047L10.6045 25.4216C11.3879 26.2029 12.6564 26.2011 13.4377 25.4177C13.4992 25.356 13.5566 25.2904 13.6096 25.2213C14.1712 24.3836 14.0486 23.2632 13.3191 22.5668L7.78974 17.0174C7.49581 16.7232 7.15786 16.4765 6.78805 16.2862L6.18703 16.0157H25.8603C26.8837 16.0538 27.7816 15.3389 27.9738 14.3329C28.151 13.2407 27.4092 12.2118 26.317 12.0346Z" fill="#9EC2B8"/>
</g>
<defs>
<clipPath id="clip0">
<rect width="28" height="28" fill="white"/>
</clipPath>
</defs>
</svg>
